<svg width="1800" height="760" viewBox="0 0 1800 760" fill="none" xmlns="http://www.w3.org/2000/svg" role="img" aria-labelledby="title desc">
  <title id="title">AIPanel architecture</title>
  <desc id="desc">Simplified architecture diagram showing browser and agent flows converging on a Vercel-hosted app backed by Feishu Bitable.</desc>

  <rect width="1800" height="760" fill="#0B1020"/>

  <text x="96" y="90" fill="#F8FAFC" font-family="Arial, Helvetica, sans-serif" font-size="40" font-weight="700">AIPanel architecture</text>
  <text x="96" y="124" fill="#94A3B8" font-family="Arial, Helvetica, sans-serif" font-size="18">Browser UI and AI agents sharing one Feishu-backed dataset</text>

  <!-- Left column -->
  <rect x="96" y="188" width="360" height="126" rx="24" fill="#192442" stroke="#5F84E8" stroke-width="2.5"/>
  <text x="132" y="236" fill="#F8FAFC" font-family="Arial, Helvetica, sans-serif" font-size="30" font-weight="700">Human browser</text>
  <text x="132" y="272" fill="#CBD5E1" font-family="Arial, Helvetica, sans-serif" font-size="19">Desktop / mobile UI</text>

  <rect x="96" y="470" width="360" height="138" rx="24" fill="#2A1E34" stroke="#C084FC" stroke-width="2.5"/>
  <text x="132" y="522" fill="#F8FAFC" font-family="Arial, Helvetica, sans-serif" font-size="30" font-weight="700">AI agent</text>
  <text x="132" y="558" fill="#E9D5FF" font-family="Arial, Helvetica, sans-serif" font-size="19">OpenClaw / Claude Code</text>
  <text x="132" y="586" fill="#E9D5FF" font-family="Arial, Helvetica, sans-serif" font-size="19">Cursor / similar tooling</text>

  <!-- Center -->
  <rect x="690" y="150" width="430" height="316" rx="28" fill="#162235" stroke="#4F7FE8" stroke-width="3"/>
  <text x="730" y="204" fill="#F8FAFC" font-family="Arial, Helvetica, sans-serif" font-size="32" font-weight="700">Vercel app</text>
  <text x="730" y="236" fill="#A7B1C7" font-family="Arial, Helvetica, sans-serif" font-size="18">AIPanel deployment</text>

  <rect x="730" y="270" width="350" height="76" rx="18" fill="#233454" stroke="#78A0FF" stroke-width="2"/>
  <text x="762" y="316" fill="#F8FAFC" font-family="Arial, Helvetica, sans-serif" font-size="24" font-weight="700">React / Vite frontend</text>

  <rect x="730" y="366" width="350" height="76" rx="18" fill="#233454" stroke="#78A0FF" stroke-width="2"/>
  <text x="762" y="412" fill="#F8FAFC" font-family="Arial, Helvetica, sans-serif" font-size="24" font-weight="700">Serverless API routes</text>

  <!-- Right column -->
  <rect x="1330" y="168" width="360" height="148" rx="24" fill="#1C2B20" stroke="#4ADE80" stroke-width="2.5"/>
  <text x="1370" y="220" fill="#F8FAFC" font-family="Arial, Helvetica, sans-serif" font-size="30" font-weight="700">Feishu APIs</text>
  <text x="1370" y="256" fill="#D1FAE5" font-family="Arial, Helvetica, sans-serif" font-size="19">Auth + Bitable access</text>

  <rect x="1300" y="446" width="420" height="170" rx="26" fill="#152A1E" stroke="#41C06E" stroke-width="3"/>
  <text x="1342" y="500" fill="#F8FAFC" font-family="Arial, Helvetica, sans-serif" font-size="32" font-weight="700">Feishu Bitable</text>
  <text x="1342" y="538" fill="#D1FAE5" font-family="Arial, Helvetica, sans-serif" font-size="20">Canonical data source</text>
  <text x="1342" y="570" fill="#D1FAE5" font-family="Arial, Helvetica, sans-serif" font-size="20">Bookmarks</text>
  <text x="1342" y="602" fill="#D1FAE5" font-family="Arial, Helvetica, sans-serif" font-size="20">Categories / ordering</text>

  <!-- Bottom note -->
  <rect x="700" y="536" width="450" height="96" rx="20" fill="#101A2C" stroke="#30415F" stroke-width="2"/>
  <text x="736" y="580" fill="#F8FAFC" font-family="Arial, Helvetica, sans-serif" font-size="22" font-weight="700">One deployed app, one shared dataset</text>
  <text x="736" y="608" fill="#CBD5E1" font-family="Arial, Helvetica, sans-serif" font-size="16">Humans and agents work on the same record model.</text>

  <defs>
    <marker id="arrowBlue" viewBox="0 0 10 10" refX="9" refY="5" markerWidth="8" markerHeight="8" orient="auto-start-reverse">
      <path d="M 0 0 L 10 5 L 0 10 z" fill="#79A6FF"/>
    </marker>
    <marker id="arrowGreen" viewBox="0 0 10 10" refX="9" refY="5" markerWidth="8" markerHeight="8" orient="auto-start-reverse">
      <path d="M 0 0 L 10 5 L 0 10 z" fill="#5EDD8A"/>
    </marker>
    <marker id="arrowPurple" viewBox="0 0 10 10" refX="9" refY="5" markerWidth="8" markerHeight="8" orient="auto-start-reverse">
      <path d="M 0 0 L 10 5 L 0 10 z" fill="#D29BFF"/>
    </marker>
  </defs>

  <!-- Flows -->
  <path d="M456 250 C540 250, 612 250, 690 250" stroke="#79A6FF" stroke-width="6" marker-end="url(#arrowBlue)"/>
  <path d="M1120 250 C1196 250, 1260 250, 1330 250" stroke="#79A6FF" stroke-width="6" marker-end="url(#arrowBlue)"/>
  <path d="M1510 316 C1510 352, 1510 388, 1510 446" stroke="#5EDD8A" stroke-width="6" marker-end="url(#arrowGreen)"/>
  <path d="M456 538 C640 538, 920 534, 1300 530" stroke="#D29BFF" stroke-width="6" marker-end="url(#arrowPurple)"/>

  <!-- Labels -->
  <text x="560" y="232" fill="#94A3B8" font-family="Arial, Helvetica, sans-serif" font-size="17">HTTPS</text>
  <text x="1210" y="232" fill="#94A3B8" font-family="Arial, Helvetica, sans-serif" font-size="16">Feishu API calls</text>
  <text x="1528" y="392" fill="#BBF7D0" font-family="Arial, Helvetica, sans-serif" font-size="17">read / write</text>
  <text x="840" y="520" fill="#E9D5FF" font-family="Arial, Helvetica, sans-serif" font-size="16">agent-driven setup and operations</text>
</svg>
